<?xml version='1.0' encoding='UTF-8' standalone='no'?>
<svg
  xmlns:dc="http://purl.org/dc/elements/1.1/"
  xmlns:cc="http://creativecommons.org/ns#"
  xmlns:rdf="http://www.w3.org/1999/02/22-rdf-syntax-ns#"
  xmlns:svg="http://www.w3.org/2000/svg"
  xmlns="http://www.w3.org/2000/svg"
  viewBox="0 0 984.25192 748.03149"
  height="0.7480315in"
  version="1.1"
  width="0.98425192in"
  id="svg121">
  <metadata
    id="metadata125">
    <rdf:RDF>
      <cc:Work
        rdf:about="">
        <dc:format>image/svg+xml</dc:format>
        <dc:type
          rdf:resource="http://purl.org/dc/dcmitype/StillImage"
        />
        <dc:title>breadboard</dc:title>
      </cc:Work>
    </rdf:RDF>
  </metadata>
  <desc
    id="desc2">
    <referenceFile>125-seven-segment_e90f553db854ecfd2234d6ad24123620_1_breadboard.svg</referenceFile>
  </desc>
  <!-- Generator: Sketch 48.1 (47250) - http://www.bohemiancoding.com/sketch -->
  <title
    id="title4">breadboard</title>
  <desc
    id="desc6">Created
    with
    Sketch.</desc>
  <defs
    id="defs8"
  />
  <g
    id="breadboard">
    <path
      d="m 291.72603,554.07821 c 24.15216,0 43.72373,21.72127 43.72373,48.50276 v 96.96709 c 0,26.80047 -19.57157,48.48347 -43.72373,48.48347 -24.15214,0 -43.7237,-21.683 -43.7237,-48.48347 v -96.96709 c 0,-26.78149 19.57156,-48.50276 43.7237,-48.50276 z m -24.98496,96.98623 c -0.0179,15.29546 11.17383,27.68572 24.96763,27.70486 13.79378,0.0153 24.98497,-12.39027 25.00232,-27.66642 0,-0.0153 0,-0.0306 0,-0.0306 0,-15.29532 -11.17385,-27.72401 -24.96763,-27.72401 -13.7938,0 -24.98498,12.39026 -25.00232,27.68556 0,0 0,0.0153 0,0.0306 z"
      gorn="0.4.0.0.0.0.0.0.0.0"
      id="Shape"
      fill="#ffbf00"
      fill-rule="nonzero"
      stroke="none"
      stroke-width="10.41979408"
    />
    <path
      d="m 391.72605,554.07821 c 24.15214,0 43.72372,21.72127 43.72372,48.50276 v 96.96709 c 0,26.80047 -19.57158,48.48347 -43.72372,48.48347 -24.15214,0 -43.72372,-21.683 -43.72372,-48.48347 v -96.96709 c 0,-26.78149 19.57158,-48.50276 43.72372,-48.50276 z m -24.98497,96.98623 c 0,15.29546 11.17383,27.68572 24.96763,27.70486 13.79378,0.0153 24.98497,-12.39027 25.00232,-27.66642 0,-0.0153 0,-0.0306 0,-0.0306 0,-15.29532 -11.17384,-27.72401 -24.96762,-27.72401 -13.7938,0 -24.98498,12.39026 -25.00233,27.68556 0,0 0,0.0153 0,0.0306 z"
      gorn="0.4.0.0.0.0.0.0.0.1"
      id="path11"
      fill="#ffbf00"
      fill-rule="nonzero"
      stroke="none"
      stroke-width="10.41979408"
    />
    <path
      d="m 491.72603,554.07821 c 24.15213,0 43.72371,21.72127 43.72371,48.50276 v 96.96709 c 0,26.80047 -19.57158,48.48347 -43.72371,48.48347 -24.15214,0 -43.7237,-21.683 -43.7237,-48.48347 v -96.96709 c 0,-26.78149 19.58892,-48.50276 43.7237,-48.50276 z m -24.98496,96.98623 c 0,15.29546 11.17382,27.68572 24.96762,27.70486 13.79377,0.0153 24.98498,-12.39027 25.00231,-27.66642 0,-0.0153 0,-0.0306 0,-0.0306 0,-15.29532 -11.17384,-27.72401 -24.96761,-27.72401 -13.7938,0 -24.98498,12.39026 -25.00232,27.68556 0,0 0,0.0153 0,0.0306 z"
      gorn="0.4.0.0.0.0.0.0.0.2"
      id="path13"
      fill="#ffbf00"
      fill-rule="nonzero"
      stroke="none"
      stroke-width="10.41979408"
    />
    <path
      d="m 591.72605,554.07821 c 24.15214,0 43.7237,21.72127 43.7237,48.50276 v 96.96709 c 0,26.80047 -19.57156,48.48347 -43.7237,48.48347 -24.15214,0 -43.72372,-21.683 -43.72372,-48.48347 v -96.96709 c 0,-26.78149 19.57158,-48.50276 43.72372,-48.50276 z m -24.98498,96.98623 c 0,15.29546 11.19119,27.68572 24.98498,27.68572 13.7938,0 24.98498,-12.40956 24.98498,-27.68572 0,-15.27617 -11.19118,-27.70486 -24.98498,-27.70486 -13.79379,0 -24.98498,12.40956 -24.98498,27.70486 z"
      gorn="0.4.0.0.0.0.0.0.0.3"
      id="path15"
      fill="#ffbf00"
      fill-rule="nonzero"
      stroke="none"
      stroke-width="10.41979408"
    />
    <path
      d="m 691.72604,554.07821 c 24.16951,0 43.74107,21.72127 43.74107,48.50276 v 96.96709 c 0,26.80047 -19.57156,48.48347 -43.74107,48.48347 -24.13478,0 -43.7237,-21.683 -43.7237,-48.48347 v -96.96709 c 0,-26.78149 19.58892,-48.50276 43.7237,-48.50276 z m -24.98498,96.98623 c 0,15.29546 11.1912,27.68572 24.96764,27.68572 13.81114,0 24.98497,-12.40956 24.98497,-27.68572 0,-15.27617 -11.19119,-27.70486 -24.98497,-27.70486 -13.77644,0 -24.96764,12.40956 -24.96764,27.70486 z"
      gorn="0.4.0.0.0.0.0.0.0.4"
      id="path17"
      fill="#ffbf00"
      fill-rule="nonzero"
      stroke="none"
      stroke-width="10.41979408"
    />
    <path
      d="m 491.72603,0.09732 c 24.15213,0 43.72371,21.70214 43.72371,48.48346 v 96.96709 c 0,26.78134 -19.57158,48.48347 -43.72371,48.48347 -24.15214,0 -43.7237,-21.70213 -43.7237,-48.48347 V 48.58078 c 0,-26.78132 19.58892,-48.48346 43.7237,-48.48346 z M 466.74107,97.0644 c 0,15.29531 11.17382,27.70487 24.96762,27.72401 13.79377,0.0153 24.98498,-12.39011 25.00231,-27.68557 0,0 0,-0.0153 0,-0.0459 0,-15.29546 -11.17384,-27.70486 -24.96761,-27.72415 -13.7938,-0.0153 -24.98498,12.39026 -25.00232,27.68571 0,0.0153 0,0.0459 0,0.0459 z"
      gorn="0.4.0.0.0.0.0.0.0.5"
      id="path19"
      fill="#ffbf00"
      fill-rule="nonzero"
      stroke="none"
      stroke-width="10.41979408"
    />
    <path
      d="m 591.72605,0 c 24.15214,0 43.7237,21.70214 43.7237,48.48346 v 96.96709 c 0,26.78134 -19.57156,48.48348 -43.7237,48.48348 -24.15214,0 -43.72372,-21.70214 -43.72372,-48.48348 V 48.48346 C 548.00233,21.70214 567.57391,0 591.72605,0 Z m -24.98498,96.96708 c 0,15.29531 11.19119,27.70487 24.98498,27.70487 13.7938,0 24.98498,-12.40956 24.98498,-27.70487 0,-15.29545 -11.19118,-27.70486 -24.98498,-27.70486 -13.79379,0 -24.98498,12.40941 -24.98498,27.70486 z"
      gorn="0.4.0.0.0.0.0.0.0.6"
      id="path21"
      fill="#ffbf00"
      fill-rule="nonzero"
      stroke="none"
      stroke-width="10.41979408"
    />
    <path
      d="m 691.72604,0 c 24.16951,0 43.74107,21.70214 43.74107,48.48346 v 96.96709 c 0,26.78134 -19.57156,48.48348 -43.74107,48.48348 -24.13478,0 -43.7237,-21.70214 -43.7237,-48.48348 V 48.48346 C 648.00234,21.70214 667.59126,0 691.72604,0 Z m -24.98498,96.96708 c 0,15.29531 11.1912,27.70487 24.96764,27.70487 13.81114,0 24.98497,-12.40956 24.98497,-27.70487 0,-15.29545 -11.19119,-27.70486 -24.98497,-27.70486 -13.77644,0 -24.96764,12.40941 -24.96764,27.70486 z"
      gorn="0.4.0.0.0.0.0.0.0.7"
      id="path23"
      fill="#ffbf00"
      fill-rule="nonzero"
      stroke="none"
      stroke-width="10.41979408"
    />
    <path
      d="m 391.72605,0 c 24.15214,0 43.72372,21.70214 43.72372,48.48346 v 96.96709 c 0,26.78134 -19.57158,48.48348 -43.72372,48.48348 -24.15214,0 -43.72372,-21.70214 -43.72372,-48.48348 V 48.48346 C 348.00233,21.70214 367.57391,0 391.72605,0 Z m -24.98497,96.96708 c 0,15.29531 11.17383,27.70487 24.96763,27.72401 13.79378,0.0153 24.98497,-12.39011 25.00232,-27.68557 0,0 0,-0.0153 0,-0.0459 0,-15.29546 -11.17384,-27.70486 -24.96762,-27.72415 -13.7938,0 -24.98498,12.39026 -25.00233,27.68571 0,0.0153 0,0.0459 0,0.0459 z"
      gorn="0.4.0.0.0.0.0.0.0.8"
      id="path25"
      fill="#ffbf00"
      fill-rule="nonzero"
      stroke="none"
      stroke-width="10.41979408"
    />
    <path
      d="m 291.72603,0 c 24.15216,0 43.72373,21.70214 43.72373,48.48346 v 96.96709 c 0,26.78134 -19.57157,48.48348 -43.72373,48.48348 -24.15214,0 -43.7237,-21.70214 -43.7237,-48.48348 V 48.48346 C 248.00233,21.70214 267.57389,0 291.72603,0 Z m -24.98496,96.96708 c -0.0179,15.29531 11.17383,27.70487 24.96763,27.72401 13.79378,0 24.98497,-12.39011 25.00232,-27.68557 0,0 0,-0.0153 0,-0.0459 0,-15.29546 -11.17385,-27.70486 -24.96763,-27.72415 -13.7938,0 -24.98498,12.39026 -25.00232,27.68571 0,0.0153 0,0.0459 0,0.0459 z"
      gorn="0.4.0.0.0.0.0.0.0.9"
      id="path27"
      fill="#ffbf00"
      fill-rule="nonzero"
      stroke="none"
      stroke-width="10.41979408"
    />
    <circle
      r="12.497748"
      cx="290.00232"
      cy="728.03137"
      gorn="0.4.0.0.0.0.0.0.1.0.0.0.0.0"
      id="connector1pin"
      fill="none"
      fill-rule="evenodd"
      stroke="#ffbf00"
      stroke-width="15.00450325"
    />
    <circle
      cx="390.00232"
      cy="728.03137"
      gorn="0.4.0.0.0.0.0.0.1.0.0.0.0.1"
      id="connector2pin"
      r="12.497748"
      fill="none"
      fill-rule="evenodd"
      stroke="#ffbf00"
      stroke-width="15.00450325"
    />
    <circle
      cx="490.00232"
      cy="728.03137"
      gorn="0.4.0.0.0.0.0.0.1.0.0.0.0.2"
      id="connector3pin"
      r="12.497748"
      fill="none"
      fill-rule="evenodd"
      stroke="#ffbf00"
      stroke-width="15.00450325"
    />
    <circle
      cx="590.00232"
      cy="728.03137"
      gorn="0.4.0.0.0.0.0.0.1.0.0.0.0.3"
      id="connector4pin"
      r="12.497748"
      fill="none"
      fill-rule="evenodd"
      stroke="#ffbf00"
      stroke-width="15.00450325"
    />
    <circle
      cx="690.00232"
      cy="728.03137"
      gorn="0.4.0.0.0.0.0.0.1.0.0.0.0.4"
      id="connector5pin"
      r="12.497748"
      fill="none"
      fill-rule="evenodd"
      stroke="#ffbf00"
      stroke-width="15.00450325"
    />
    <circle
      r="12.497748"
      cx="690.00238"
      cy="28.03134"
      gorn="0.4.0.0.0.0.0.0.1.0.0.0.0.5"
      id="connector6pin"
      fill="none"
      fill-rule="evenodd"
      stroke="#ffbf00"
      stroke-width="15.00450325"
    />
    <ellipse
      rx="12.497748"
      cx="590.00238"
      cy="28.03134"
      ry="12.497749"
      gorn="0.4.0.0.0.0.0.0.1.0.0.0.0.6"
      id="connector7pin"
      fill="none"
      fill-rule="evenodd"
      stroke="#ffbf00"
      stroke-width="15.00450325"
    />
    <circle
      cx="490.00232"
      cy="28.03134"
      gorn="0.4.0.0.0.0.0.0.1.0.0.0.0.7"
      id="connector8pin"
      r="12.497749"
      fill="none"
      fill-rule="evenodd"
      stroke="#ffbf00"
      stroke-width="15.00450325"
    />
    <circle
      r="12.497748"
      cx="390.00232"
      cy="28.03134"
      gorn="0.4.0.0.0.0.0.0.1.0.0.0.0.8"
      id="connector9pin"
      fill="none"
      fill-rule="evenodd"
      stroke="#ffbf00"
      stroke-width="15.00450325"
    />
    <circle
      cx="290.00232"
      cy="28.03134"
      gorn="0.4.0.0.0.0.0.0.1.0.0.0.0.9"
      id="connector0pin"
      r="12.497749"
      fill="none"
      fill-rule="evenodd"
      stroke="#ffbf00"
      stroke-width="15.00450325"
    />
    <polygon
      transform="matrix(13.785471,0,0,15.313067,-15.407403,19.23949)"
      id="silkscreen"
      gorn="0.4.0.1.0.0.0.0.0"
      points="1.1201722,0.010051282 71.21558,0.010051282 71.905002,1.2664615 71.905002,46.326359 1.7384884,46.326359 1.1201722,44.684231 "
      fill="#323232"
      fill-rule="nonzero"
      stroke="none"
      stroke-width="0.71716189"
    />
    <polygon
      transform="matrix(13.785471,0,0,15.313067,522.46361,76.95796)"
      points="11.605741,4.7944615 9.5202069,1.6672564 10.564862,0.62820513 26.224621,0.62820513 27.268017,1.6672564 25.178707,4.7944615 "
      gorn="0.4.0.1.0.0.0.0.1.0.0.0.0.0"
      id="polygon59"
      fill="#646464"
      fill-rule="nonzero"
      stroke="none"
      stroke-width="0.71716189"
    />
    <polygon
      transform="matrix(13.785471,0,0,15.313067,522.46361,76.95796)"
      points="23.093172,16.260462 25.178707,5.8347692 28.312672,2.7088205 29.356069,4.7944615 27.268017,16.260462 25.178707,18.342333 "
      gorn="0.4.0.1.0.0.0.0.1.0.0.0.0.1"
      id="polygon61"
      fill="#ef1818"
      fill-rule="nonzero"
      stroke="none"
      stroke-width="0.71716189"
    />
    <polygon
      transform="matrix(13.785471,0,0,15.313067,522.46361,76.95796)"
      points="19.960466,32.934282 22.048517,22.514872 25.178707,19.383897 26.224621,21.467026 24.136569,32.934282 22.048517,35.018667 "
      gorn="0.4.0.1.0.0.0.0.1.0.0.0.0.2"
      id="polygon63"
      fill="#ef1818"
      fill-rule="nonzero"
      stroke="none"
      stroke-width="0.71716189"
    />
    <polygon
      transform="matrix(13.785471,0,0,15.313067,522.46361,76.95796)"
      points="18.917069,32.934282 21.003862,36.058974 19.960466,37.101795 4.2994483,37.101795 3.2547931,36.056461 5.3428448,32.934282 "
      gorn="0.4.0.1.0.0.0.0.1.0.0.0.0.3"
      id="polygon65"
      fill="#646464"
      fill-rule="nonzero"
      stroke="none"
      stroke-width="0.71716189"
    />
    <polygon
      transform="matrix(13.785471,0,0,15.313067,522.46361,76.95796)"
      points="7.4296379,21.467026 5.3428448,31.888949 2.2101379,35.018667 1.168,32.934282 3.2547931,21.467026 5.3428448,19.383897 "
      gorn="0.4.0.1.0.0.0.0.1.0.0.0.0.4"
      id="polygon67"
      fill="#646464"
      fill-rule="nonzero"
      stroke="none"
      stroke-width="0.71716189"
    />
    <polygon
      transform="matrix(13.785471,0,0,15.313067,522.46361,76.95796)"
      points="10.564862,4.7944615 8.4742931,15.217641 5.3428448,18.342333 4.2994483,16.260462 6.3887586,4.7944615 8.4742931,2.7088205 "
      gorn="0.4.0.1.0.0.0.0.1.0.0.0.0.5"
      id="polygon69"
      fill="#646464"
      fill-rule="nonzero"
      stroke="none"
      stroke-width="0.71716189"
    />
    <polygon
      transform="matrix(13.785471,0,0,15.313067,522.46361,76.95796)"
      points="22.048517,21.052411 8.4742931,21.052411 6.3887586,18.968026 8.4742931,16.886154 22.048517,16.886154 24.136569,18.968026 "
      gorn="0.4.0.1.0.0.0.0.1.0.0.0.0.6"
      id="polygon71"
      fill="#646464"
      fill-rule="nonzero"
      stroke="none"
      stroke-width="0.71716189"
    />
    <ellipse
      rx="30.328987"
      cx="892.20667"
      cy="613.12408"
      ry="33.630638"
      gorn="0.4.0.1.0.0.0.0.1.0.0.0.0.7"
      id="Oval"
      fill="#2b1100"
      fill-rule="nonzero"
      stroke="none"
      stroke-width="10.41979408"
    />
    <polygon
      transform="matrix(13.785471,0,0,15.313067,36.644631,76.95796)"
      points="10.613948,4.7944615 8.5296724,1.6672564 9.5718103,0.62820513 25.232828,0.62820513 26.276224,1.6672564 24.186914,4.7944615 "
      gorn="0.4.0.1.0.0.0.0.2.0.0.0.0.0"
      id="polygon83"
      fill="#646464"
      fill-rule="nonzero"
      stroke="none"
      stroke-width="0.71716189"
    />
    <polygon
      transform="matrix(13.785471,0,0,15.313067,36.644631,76.95796)"
      points="22.101379,16.260462 24.186914,5.8347692 27.320879,2.7088205 28.364276,4.7944615 26.276224,16.260462 24.186914,18.342333 "
      gorn="0.4.0.1.0.0.0.0.2.0.0.0.0.1"
      id="polygon85"
      fill="#ef1818"
      fill-rule="nonzero"
      stroke="none"
      stroke-width="0.71716189"
    />
    <polygon
      transform="matrix(13.785471,0,0,15.313067,36.644631,76.95796)"
      points="18.968672,32.934282 21.055466,22.514872 24.186914,19.383897 25.232828,21.467026 23.144776,32.934282 21.055466,35.018667 "
      gorn="0.4.0.1.0.0.0.0.2.0.0.0.0.2"
      id="polygon87"
      fill="#ef1818"
      fill-rule="nonzero"
      stroke="none"
      stroke-width="0.71716189"
    />
    <polygon
      transform="matrix(13.785471,0,0,15.313067,36.644631,76.95796)"
      points="17.925276,32.934282 20.012069,36.058974 18.968672,37.101795 3.3076552,37.101795 2.263,36.056461 4.3510517,32.934282 "
      gorn="0.4.0.1.0.0.0.0.2.0.0.0.0.3"
      id="polygon89"
      fill="#646464"
      fill-rule="nonzero"
      stroke="none"
      stroke-width="0.71716189"
    />
    <polygon
      transform="matrix(13.785471,0,0,15.313067,36.644631,76.95796)"
      points="6.4378448,21.467026 4.3510517,31.888949 1.2183448,35.018667 0.1762069,32.934282 2.263,21.467026 4.3510517,19.383897 "
      gorn="0.4.0.1.0.0.0.0.2.0.0.0.0.4"
      id="polygon91"
      fill="#ef1818"
      fill-rule="nonzero"
      stroke="none"
      stroke-width="0.71716189"
    />
    <polygon
      transform="matrix(13.785471,0,0,15.313067,36.644631,76.95796)"
      points="9.5718103,4.7944615 7.4825,15.217641 4.3510517,18.342333 3.3076552,16.260462 5.3969655,4.7944615 7.4825,2.7088205 "
      gorn="0.4.0.1.0.0.0.0.2.0.0.0.0.5"
      id="polygon93"
      fill="#ef1818"
      fill-rule="nonzero"
      stroke="none"
      stroke-width="0.71716189"
    />
    <polygon
      transform="matrix(13.785471,0,0,15.313067,36.644631,76.95796)"
      points="21.055466,21.052411 7.4825,21.052411 5.3969655,18.968026 7.4825,16.886154 21.055466,16.886154 23.144776,18.968026 "
      gorn="0.4.0.1.0.0.0.0.2.0.0.0.0.6"
      id="polygon95"
      fill="#ef1818"
      fill-rule="nonzero"
      stroke="none"
      stroke-width="0.71716189"
    />
    <ellipse
      rx="30.328987"
      cx="392.69791"
      cy="613.12408"
      ry="33.630638"
      gorn="0.4.0.1.0.0.0.0.2.0.0.0.0.7"
      id="ellipse97"
      fill="#646464"
      fill-rule="nonzero"
      stroke="none"
      stroke-width="10.41979408"
    />
    <polygon
      transform="matrix(13.785471,0,0,15.313067,-15.407403,19.23949)"
      id="bottom-shadow"
      gorn="0.4.0.1.0.0.0.0.3"
      points="71.858076,44.684231 1.1176552,44.684231 1.7410286,46.326359 72.481449,46.326359 "
      fill="#c7c7c7"
      fill-rule="nonzero"
      stroke="none"
      stroke-width="0.71716189"
    />
    <polygon
      transform="matrix(13.785471,0,0,15.313067,-15.407403,19.23949)"
      id="right-shadow"
      gorn="0.4.0.1.0.0.0.0.4"
      points="71.112069,44.684231 72.515431,46.326359 72.515431,1.2664615 71.112069,0.010051282 "
      fill="#aaaaaa"
      fill-rule="nonzero"
      stroke="none"
      stroke-width="0.71716189"
    />
  </g>
</svg>
