<?xml version='1.0' encoding='UTF-8'?>
<svg xmlns="http://www.w3.org/2000/svg" viewBox="0 0 73 49" height="49px" version="1.1"  width="73px">
    <desc >
        <referenceFile >breadboard.svg</referenceFile>
    </desc>
    <!-- Generator: Sketch 48.1 (47250) - http://www.bohemiancoding.com/sketch -->
    <title >breadboard</title>
    <desc >Created with Sketch.</desc>
    <defs />
    <g id="Page-1" gorn="0.4" stroke-width="1" stroke="none" fill="none"  fill-rule="evenodd">
        <g id="parts" gorn="0.4.0" >
            <g transform="translate(15.103448, 0.000000)" >
                <g >
                    <g >
                        <g >
                            <g id="copper0" gorn="0.4.0.0.0.0.0.0" >
                                <g id="copper2" gorn="0.4.0.0.0.0.0.0.0" fill="#FFBF00"  fill-rule="nonzero">
                                    <path id="Shape" gorn="0.4.0.0.0.0.0.0.0.0" d="M3.68524138,36.183359 C5.43724138,36.183359 6.85696552,37.6018462 6.85696552,39.3507692 L6.85696552,45.6830769 C6.85696552,47.4332564 5.43724138,48.8492308 3.68524138,48.8492308 C1.93324138,48.8492308 0.513517241,47.4332564 0.513517241,45.6830769 L0.513517241,39.3507692 C0.513517241,37.6018462 1.93324138,36.183359 3.68524138,36.183359 Z M1.87282759,42.5169231 C1.87156897,43.5157692 2.68337931,44.3248974 3.68398276,44.3261538 C4.68458621,44.3274103 5.49639655,43.5170256 5.49765517,42.5194359 C5.49765517,42.5181795 5.49765517,42.5169231 5.49765517,42.5169231 C5.49765517,41.5180769 4.68710345,40.7064359 3.6865,40.7064359 C2.68589655,40.7064359 1.87408621,41.5155641 1.87282759,42.5144103 C1.87282759,42.5144103 1.87282759,42.5156667 1.87282759,42.5169231 Z" />
                                    <path id="Shape" gorn="0.4.0.0.0.0.0.0.0.1" d="M12.7473103,36.183359 C14.4993103,36.183359 15.9190345,37.6018462 15.9190345,39.3507692 L15.9190345,45.6830769 C15.9190345,47.4332564 14.4993103,48.8492308 12.7473103,48.8492308 C10.9953103,48.8492308 9.57558621,47.4332564 9.57558621,45.6830769 L9.57558621,39.3507692 C9.57558621,37.6018462 10.9953103,36.183359 12.7473103,36.183359 Z M10.9348966,42.5169231 C10.9348966,43.5157692 11.7454483,44.3248974 12.7460517,44.3261538 C13.7466552,44.3274103 14.5584655,43.5170256 14.5597241,42.5194359 C14.5597241,42.5181795 14.5597241,42.5169231 14.5597241,42.5169231 C14.5597241,41.5180769 13.7491724,40.7064359 12.748569,40.7064359 C11.7479655,40.7064359 10.9361552,41.5155641 10.9348966,42.5144103 C10.9348966,42.5144103 10.9348966,42.5156667 10.9348966,42.5169231 Z" />
                                    <path id="Shape" gorn="0.4.0.0.0.0.0.0.0.2" d="M21.8093793,36.183359 C23.5613793,36.183359 24.9811034,37.6018462 24.9811034,39.3507692 L24.9811034,45.6830769 C24.9811034,47.4332564 23.5613793,48.8492308 21.8093793,48.8492308 C20.0573793,48.8492308 18.6376552,47.4332564 18.6376552,45.6830769 L18.6376552,39.3507692 C18.6376552,37.6018462 20.0586379,36.183359 21.8093793,36.183359 Z M19.9969655,42.5169231 C19.9969655,43.5157692 20.8075172,44.3248974 21.8081207,44.3261538 C22.8087241,44.3274103 23.6205345,43.5170256 23.6217931,42.5194359 C23.6217931,42.5181795 23.6217931,42.5169231 23.6217931,42.5169231 C23.6217931,41.5180769 22.8112414,40.7064359 21.8106379,40.7064359 C20.8100345,40.7064359 19.9982241,41.5155641 19.9969655,42.5144103 C19.9969655,42.5144103 19.9969655,42.5156667 19.9969655,42.5169231 Z" />
                                    <path id="Shape" gorn="0.4.0.0.0.0.0.0.0.3" d="M30.8714483,36.183359 C32.6234483,36.183359 34.0431724,37.6018462 34.0431724,39.3507692 L34.0431724,45.6830769 C34.0431724,47.4332564 32.6234483,48.8492308 30.8714483,48.8492308 C29.1194483,48.8492308 27.6997241,47.4332564 27.6997241,45.6830769 L27.6997241,39.3507692 C27.6997241,37.6018462 29.1194483,36.183359 30.8714483,36.183359 Z M29.0590345,42.5169231 C29.0590345,43.5157692 29.8708448,44.3248974 30.8714483,44.3248974 C31.8720517,44.3248974 32.6838621,43.5145128 32.6838621,42.5169231 C32.6838621,41.5193333 31.8720517,40.7076923 30.8714483,40.7076923 C29.8708448,40.7076923 29.0590345,41.5180769 29.0590345,42.5169231 Z" />
                                    <path id="Shape" gorn="0.4.0.0.0.0.0.0.0.4" d="M39.9335172,36.183359 C41.6867759,36.183359 43.1065,37.6018462 43.1065,39.3507692 L43.1065,45.6830769 C43.1065,47.4332564 41.6867759,48.8492308 39.9335172,48.8492308 C38.1827759,48.8492308 36.7617931,47.4332564 36.7617931,45.6830769 L36.7617931,39.3507692 C36.7617931,37.6018462 38.1827759,36.183359 39.9335172,36.183359 Z M38.1211034,42.5169231 C38.1211034,43.5157692 38.9329138,44.3248974 39.9322586,44.3248974 C40.9341207,44.3248974 41.7446724,43.5145128 41.7446724,42.5169231 C41.7446724,41.5193333 40.9328621,40.7076923 39.9322586,40.7076923 C38.9329138,40.7076923 38.1211034,41.5180769 38.1211034,42.5169231 Z" />
                                    <path id="Shape" gorn="0.4.0.0.0.0.0.0.0.5" d="M21.8093793,0 C23.5613793,0 24.9811034,1.41723077 24.9811034,3.16615385 L24.9811034,9.49846154 C24.9811034,11.2473846 23.5613793,12.6646154 21.8093793,12.6646154 C20.0573793,12.6646154 18.6376552,11.2473846 18.6376552,9.49846154 L18.6376552,3.16615385 C18.6376552,1.41723077 20.0586379,0 21.8093793,0 Z M19.9969655,6.33230769 C19.9969655,7.33115385 20.8075172,8.14153846 21.8081207,8.14279487 C22.8087241,8.14405128 23.6205345,7.33366667 23.6217931,6.33482051 C23.6217931,6.33482051 23.6217931,6.3335641 23.6217931,6.33230769 C23.6217931,5.33346154 22.8112414,4.52307692 21.8106379,4.52182051 C20.8100345,4.5205641 19.9982241,5.33094872 19.9969655,6.32979487 C19.9969655,6.33105128 19.9969655,6.33230769 19.9969655,6.33230769 Z" />
                                    <path id="Shape" gorn="0.4.0.0.0.0.0.0.0.6" d="M30.8714483,0 C32.6234483,0 34.0431724,1.41723077 34.0431724,3.16615385 L34.0431724,9.49846154 C34.0431724,11.2473846 32.6234483,12.6646154 30.8714483,12.6646154 C29.1194483,12.6646154 27.6997241,11.2473846 27.6997241,9.49846154 L27.6997241,3.16615385 C27.6997241,1.41723077 29.1194483,0 30.8714483,0 Z M29.0590345,6.33230769 C29.0590345,7.33115385 29.8708448,8.14153846 30.8714483,8.14153846 C31.8720517,8.14153846 32.6838621,7.33115385 32.6838621,6.33230769 C32.6838621,5.33346154 31.8720517,4.52307692 30.8714483,4.52307692 C29.8708448,4.52307692 29.0590345,5.33346154 29.0590345,6.33230769 Z" />
                                    <path id="Shape" gorn="0.4.0.0.0.0.0.0.0.7" d="M39.9335172,0 C41.6867759,0 43.1065,1.41723077 43.1065,3.16615385 L43.1065,9.49846154 C43.1065,11.2473846 41.6867759,12.6646154 39.9335172,12.6646154 C38.1827759,12.6646154 36.7617931,11.2473846 36.7617931,9.49846154 L36.7617931,3.16615385 C36.7617931,1.41723077 38.1827759,0 39.9335172,0 Z M38.1211034,6.33230769 C38.1211034,7.33115385 38.9329138,8.14153846 39.9322586,8.14153846 C40.9341207,8.14153846 41.7446724,7.33115385 41.7446724,6.33230769 C41.7446724,5.33346154 40.9328621,4.52307692 39.9322586,4.52307692 C38.9329138,4.52307692 38.1211034,5.33346154 38.1211034,6.33230769 Z" />
                                    <path id="Shape" gorn="0.4.0.0.0.0.0.0.0.8" d="M12.7473103,0 C14.4993103,0 15.9190345,1.41723077 15.9190345,3.16615385 L15.9190345,9.49846154 C15.9190345,11.2473846 14.4993103,12.6646154 12.7473103,12.6646154 C10.9953103,12.6646154 9.57558621,11.2473846 9.57558621,9.49846154 L9.57558621,3.16615385 C9.57558621,1.41723077 10.9953103,0 12.7473103,0 Z M10.9348966,6.33230769 C10.9348966,7.33115385 11.7454483,8.14153846 12.7460517,8.14279487 C13.7466552,8.14405128 14.5584655,7.33366667 14.5597241,6.33482051 C14.5597241,6.33482051 14.5597241,6.3335641 14.5597241,6.33230769 C14.5597241,5.33346154 13.7491724,4.52307692 12.748569,4.52182051 C11.7479655,4.52182051 10.9361552,5.33094872 10.9348966,6.32979487 C10.9348966,6.33105128 10.9348966,6.33230769 10.9348966,6.33230769 Z" />
                                    <path id="Shape" gorn="0.4.0.0.0.0.0.0.0.9" d="M3.68524138,0 C5.43724138,0 6.85696552,1.41723077 6.85696552,3.16615385 L6.85696552,9.49846154 C6.85696552,11.2473846 5.43724138,12.6646154 3.68524138,12.6646154 C1.93324138,12.6646154 0.513517241,11.2473846 0.513517241,9.49846154 L0.513517241,3.16615385 C0.513517241,1.41723077 1.93324138,0 3.68524138,0 Z M1.87282759,6.33230769 C1.87156897,7.33115385 2.68337931,8.14153846 3.68398276,8.14279487 C4.68458621,8.14279487 5.49639655,7.33366667 5.49765517,6.33482051 C5.49765517,6.33482051 5.49765517,6.3335641 5.49765517,6.33230769 C5.49765517,5.33346154 4.68710345,4.52307692 3.6865,4.52182051 C2.68589655,4.52182051 1.87408621,5.33094872 1.87282759,6.32979487 C1.87282759,6.33105128 1.87282759,6.33230769 1.87282759,6.33230769 Z" />
                                </g>
                                <g transform="translate(0.000000, 3.769231)" >
                                    <g >
                                        <g >
                                            <g >
                                                <g id="copper1" gorn="0.4.0.0.0.0.0.0.1.0.0.0.0" stroke-width="1.44" stroke="#FFBF00" >
                                                    <ellipse id="connector1pin" gorn="0.4.0.0.0.0.0.0.1.0.0.0.0.0" ry="2.48769231" cy="38.7476923"  cx="3.68524138" rx="2.49206897"/>
                                                    <ellipse id="connector2pin" gorn="0.4.0.0.0.0.0.0.1.0.0.0.0.1" ry="2.48769231" cy="38.7476923"  cx="12.7473103" rx="2.49206897"/>
                                                    <ellipse id="connector3pin" gorn="0.4.0.0.0.0.0.0.1.0.0.0.0.2" ry="2.48769231" cy="38.7476923"  cx="21.8093793" rx="2.49206897"/>
                                                    <ellipse id="connector4pin" gorn="0.4.0.0.0.0.0.0.1.0.0.0.0.3" ry="2.48769231" cy="38.7476923"  cx="30.8714483" rx="2.49206897"/>
                                                    <ellipse id="connector5pin" gorn="0.4.0.0.0.0.0.0.1.0.0.0.0.4" ry="2.48769231" cy="38.7476923"  cx="39.9335172" rx="2.49206897"/>
                                                    <ellipse id="connector6pin" gorn="0.4.0.0.0.0.0.0.1.0.0.0.0.5" ry="2.48769231" cy="2.56307692"  cx="39.9335172" rx="2.49206897"/>
                                                    <ellipse id="connector7pin" gorn="0.4.0.0.0.0.0.0.1.0.0.0.0.6" ry="2.48769231" cy="2.56307692"  cx="30.8714483" rx="2.49206897"/>
                                                    <ellipse id="connector8pin" gorn="0.4.0.0.0.0.0.0.1.0.0.0.0.7" ry="2.48769231" cy="2.56307692"  cx="21.8093793" rx="2.49206897"/>
                                                    <ellipse id="connector9pin" gorn="0.4.0.0.0.0.0.0.1.0.0.0.0.8" ry="2.48769231" cy="2.56307692"  cx="12.7473103" rx="2.49206897"/>
                                                    <ellipse id="connector0pin" gorn="0.4.0.0.0.0.0.0.1.0.0.0.0.9" ry="2.48769231" cy="2.56307692"  cx="3.68524138" rx="2.49206897"/>
                                                </g>
                                            </g>
                                        </g>
                                    </g>
                                </g>
                            </g>
                        </g>
                    </g>
                </g>
            </g>
            <g transform="translate(0.000000, 1.256410)" >
                <g >
                    <g >
                        <g >
                            <g id="breadboard" gorn="0.4.0.1.0.0.0.0"  fill-rule="nonzero">
                                <polygon id="silkscreen" gorn="0.4.0.1.0.0.0.0.0" points="1.12017225 0.0100512821 71.2155795 0.0100512821 71.9050019 1.26646154 71.9050019 46.326359 1.73848837 46.326359 1.12017225 44.6842308" fill="#323232" />
                                <g transform="translate(39.017241, 3.769231)" >
                                    <g >
                                        <g >
                                            <g >
                                                <g id="digit-2" gorn="0.4.0.1.0.0.0.0.1.0.0.0.0" >
                                                    <polygon id="Shape" gorn="0.4.0.1.0.0.0.0.1.0.0.0.0.0" points="10.5648621 0.628205128 26.2246207 0.628205128 27.2680172 1.66725641 25.1787069 4.79446154 11.6057414 4.79446154 9.5202069 1.66725641" fill="#646464" />
                                                    <polygon id="Shape" gorn="0.4.0.1.0.0.0.0.1.0.0.0.0.1" points="28.3126724 2.70882051 29.356069 4.79446154 27.2680172 16.2604615 25.1787069 18.3423333 23.0931724 16.2604615 25.1787069 5.83476923" fill="#EF1818" />
                                                    <polygon id="Shape" gorn="0.4.0.1.0.0.0.0.1.0.0.0.0.2" points="25.1787069 19.3838974 26.2246207 21.4670256 24.136569 32.9342821 22.0485172 35.0186667 19.9604655 32.9342821 22.0485172 22.5148718" fill="#EF1818" />
                                                    <polygon id="Shape" gorn="0.4.0.1.0.0.0.0.1.0.0.0.0.3" points="19.9604655 37.1017949 4.29944828 37.1017949 3.2547931 36.0564615 5.34284483 32.9342821 18.917069 32.9342821 21.0038621 36.0589744" fill="#646464" />
                                                    <polygon id="Shape" gorn="0.4.0.1.0.0.0.0.1.0.0.0.0.4" points="2.21013793 35.0186667 1.168 32.9342821 3.2547931 21.4670256 5.34284483 19.3838974 7.42963793 21.4670256 5.34284483 31.8889487" fill="#646464" />
                                                    <polygon id="Shape" gorn="0.4.0.1.0.0.0.0.1.0.0.0.0.5" points="5.34284483 18.3423333 4.29944828 16.2604615 6.38875862 4.79446154 8.4742931 2.70882051 10.5648621 4.79446154 8.4742931 15.217641" fill="#646464" />
                                                    <polygon id="Shape" gorn="0.4.0.1.0.0.0.0.1.0.0.0.0.6" points="6.38875862 18.9680263 8.4742931 16.8861545 22.0485172 16.8861545 24.136569 18.9680263 22.0485172 21.0524109 8.4742931 21.0524109" fill="#646464" />
                                                    <ellipse id="Oval" gorn="0.4.0.1.0.0.0.0.1.0.0.0.0.7" ry="2.19620513" cy="35.013641" fill="#646464"  cx="26.8212069" rx="2.20006897"/>
                                                </g>
                                            </g>
                                        </g>
                                    </g>
                                </g>
                                <g transform="translate(3.775862, 3.769231)" >
                                    <g >
                                        <g >
                                            <g >
                                                <g id="digit-1" gorn="0.4.0.1.0.0.0.0.2.0.0.0.0" >
                                                    <polygon id="Shape" gorn="0.4.0.1.0.0.0.0.2.0.0.0.0.0" points="9.57181034 0.628205128 25.2328276 0.628205128 26.2762241 1.66725641 24.1869138 4.79446154 10.6139483 4.79446154 8.52967241 1.66725641" fill="#646464" />
                                                    <polygon id="Shape" gorn="0.4.0.1.0.0.0.0.2.0.0.0.0.1" points="27.3208793 2.70882051 28.3642759 4.79446154 26.2762241 16.2604615 24.1869138 18.3423333 22.1013793 16.2604615 24.1869138 5.83476923" fill="#EF1818" />
                                                    <polygon id="Shape" gorn="0.4.0.1.0.0.0.0.2.0.0.0.0.2" points="24.1869138 19.3838974 25.2328276 21.4670256 23.1447759 32.9342821 21.0554655 35.0186667 18.9686724 32.9342821 21.0554655 22.5148718" fill="#EF1818" />
                                                    <polygon id="Shape" gorn="0.4.0.1.0.0.0.0.2.0.0.0.0.3" points="18.9686724 37.1017949 3.30765517 37.1017949 2.263 36.0564615 4.35105172 32.9342821 17.9252759 32.9342821 20.012069 36.0589744" fill="#646464" />
                                                    <polygon id="Shape" gorn="0.4.0.1.0.0.0.0.2.0.0.0.0.4" points="1.21834483 35.0186667 0.176206897 32.9342821 2.263 21.4670256 4.35105172 19.3838974 6.43784483 21.4670256 4.35105172 31.8889487" fill="#EF1818" />
                                                    <polygon id="Shape" gorn="0.4.0.1.0.0.0.0.2.0.0.0.0.5" points="4.35105172 18.3423333 3.30765517 16.2604615 5.39696552 4.79446154 7.4825 2.70882051 9.57181034 4.79446154 7.4825 15.217641" fill="#EF1818" />
                                                    <polygon id="Shape" gorn="0.4.0.1.0.0.0.0.2.0.0.0.0.6" points="5.39696552 18.9680263 7.4825 16.8861545 21.0554655 16.8861545 23.1447759 18.9680263 21.0554655 21.0524109 7.4825 21.0524109" fill="#EF1818" />
                                                    <ellipse id="Oval" gorn="0.4.0.1.0.0.0.0.2.0.0.0.0.7" ry="2.19620513" cy="35.013641" fill="#646464"  cx="25.8281552" rx="2.20006897"/>
                                                </g>
                                            </g>
                                        </g>
                                    </g>
                                </g>
                                <polygon id="bottom-shadow" gorn="0.4.0.1.0.0.0.0.3" points="71.8580758 44.6842308 1.11765517 44.6842308 1.74102864 46.326359 72.4814492 46.326359" fill="#C7C7C7" />
                                <polygon id="right-shadow" gorn="0.4.0.1.0.0.0.0.4" points="71.112069 44.6842308 72.515431 46.326359 72.515431 1.26646154 71.112069 0.0100512821" fill="#AAAAAA" />
                            </g>
                        </g>
                    </g>
                </g>
            </g>
        </g>
    </g>
</svg>
