<?xml version="1.0" encoding="UTF-8" standalone="no"?>
<svg
   xmlns:dc="http://purl.org/dc/elements/1.1/"
   xmlns:cc="http://creativecommons.org/ns#"
   xmlns:rdf="http://www.w3.org/1999/02/22-rdf-syntax-ns#"
   xmlns:svg="http://www.w3.org/2000/svg"
   xmlns="http://www.w3.org/2000/svg"
   xmlns:sodipodi="http://sodipodi.sourceforge.net/DTD/sodipodi-0.dtd"
   xmlns:inkscape="http://www.inkscape.org/namespaces/inkscape"
   viewBox="0 0 994.21126 754.70269"
   height="0.75470269in"
   version="1.1"
   width="0.99421126in"
   id="svg76"
   sodipodi:docname="svg.pcb.125-seven-segment_e90f553db854ecfd2234d6ad24123620_1_pcb.svg"
   inkscape:version="0.92.2 5c3e80d, 2017-08-06">
  <sodipodi:namedview
     pagecolor="#ffffff"
     bordercolor="#666666"
     borderopacity="1"
     objecttolerance="10"
     gridtolerance="10"
     guidetolerance="10"
     inkscape:pageopacity="0"
     inkscape:pageshadow="2"
     inkscape:window-width="1283"
     inkscape:window-height="784"
     id="namedview3834"
     showgrid="false"
     showguides="true"
     inkscape:measure-start="101.735,27.9587"
     inkscape:measure-end="28.6174,65.2126"
     inkscape:lockguides="false"
     inkscape:zoom="6.8315016"
     inkscape:cx="49.389963"
     inkscape:cy="29.469556"
     inkscape:window-x="0"
     inkscape:window-y="0"
     inkscape:window-maximized="0"
     inkscape:current-layer="copper0" />
  <metadata
     id="metadata80">
    <rdf:RDF>
      <cc:Work
         rdf:about="">
        <dc:format>image/svg+xml</dc:format>
        <dc:type
           rdf:resource="http://purl.org/dc/dcmitype/StillImage" />
        <dc:title>breadboard</dc:title>
      </cc:Work>
    </rdf:RDF>
  </metadata>
  <desc
     id="desc2">
    <referenceFile>125-seven-segment_e90f553db854ecfd2234d6ad24123620_1_pcb.svg</referenceFile>
  </desc>
  <!-- Generator: Sketch 48.1 (47250) - http://www.bohemiancoding.com/sketch -->
  <title
     id="title4">breadboard</title>
  <desc
     id="desc6">Created
    with
    Sketch.</desc>
  <defs
     id="defs8" />
  <g
     id="silkscreen">
    <path
       id="line"
       gorn="0.4.0.121"
       d="M 5,11.841535 V 744.99529"
       inkscape:connector-curvature="0"
       fill="none"
       fill-rule="evenodd"
       stroke="#000000"
       stroke-width="10"
       stroke-linecap="square" />
    <path
       id="path683"
       gorn="0.4.0.121"
       d="M 989.21112,9.7429952 V 744.17439"
       inkscape:connector-curvature="0"
       fill="none"
       fill-rule="evenodd"
       stroke="#000000"
       stroke-width="10"
       stroke-linecap="square" />
    <path
       id="path685"
       gorn="0.4.0.121"
       d="M 984.17907,5 H 9.9275659"
       inkscape:connector-curvature="0"
       fill="none"
       fill-rule="evenodd"
       stroke="#000000"
       stroke-width="10"
       stroke-linecap="square" />
    <path
       d="M 982.84858,749.70256 H 11.037438"
       gorn="0.4.0.121"
       id="path687"
       inkscape:connector-curvature="0"
       fill="none"
       fill-rule="evenodd"
       stroke="#000000"
       stroke-width="10"
       stroke-linecap="square" />
  </g>
  <g
     id="copper1">
    <g
       id="copper0"
       display="inline"
       style="display:inline">
      <circle
         id="connector1pad"
         gorn="0.4.0.0.0.0.0.0.0.0.0.0.0.0.0.0.0.1"
         cy="675.74115"
         cx="298.80737"
         r="25"
         style="fill:none;fill-rule:evenodd;stroke:#ffbf00;stroke-width:20" />
      <path
         d="m 398.08069,609.76699 c 18.27314,0 33.08069,14.77587 33.08069,32.99371 v 65.96127 c 0,18.23096 -14.80755,32.98069 -33.08069,32.98069 -18.27315,0 -33.0807,-14.74973 -33.0807,-32.98069 V 642.7607 c 0,-18.21784 14.80755,-32.99371 33.0807,-32.99371 z m -18.90328,65.9744 c 0,10.40453 8.4671,18.83294 18.90328,18.83294 10.43617,0 18.90325,-8.44143 18.90325,-18.83294 0,-10.39152 -8.46708,-18.84607 -18.90325,-18.84607 -10.43618,0 -18.90328,8.44143 -18.90328,18.84607 z"
         gorn="0.4.0.0.0.0.0.0.0.0.0.0.0.0.0.0.0.0.0.0.0.0.3"
         id="path41"
         inkscape:connector-curvature="0"
         style="fill:#ffbf00;fill-rule:nonzero;stroke:none;stroke-width:10.42324924" />
      <circle
         id="connector2pad"
         gorn="0.4.0.0.0.0.0.0.0.0.0.0.0.0.0.0.0.2"
         cy="675.74115"
         cx="397.81543"
         r="25"
         style="fill:none;fill-rule:evenodd;stroke:#ffbf00;stroke-width:20" />
      <path
         id="path39"
         gorn="0.4.0.0.0.0.0.0.0.0.0.0.0.0.0.0.0.0.0.0.0.0.3"
         d="m 498.08068,609.76699 c 18.27314,0 33.08069,14.77587 33.08069,32.99371 v 65.96127 c 0,18.23096 -14.80755,32.98069 -33.08069,32.98069 -18.27315,0 -33.0807,-14.74973 -33.0807,-32.98069 V 642.7607 c 0,-18.21784 14.80755,-32.99371 33.0807,-32.99371 z m -18.90328,65.9744 c 0,10.40453 8.4671,18.83294 18.90328,18.83294 10.43617,0 18.90325,-8.44143 18.90325,-18.83294 0,-10.39152 -8.46708,-18.84607 -18.90325,-18.84607 -10.43618,0 -18.90328,8.44143 -18.90328,18.84607 z"
         inkscape:connector-curvature="0"
         style="fill:#ffbf00;fill-rule:nonzero;stroke:none;stroke-width:10.42324924" />
      <circle
         id="connector3pad"
         gorn="0.4.0.0.0.0.0.0.0.0.0.0.0.0.0.0.0.3"
         cy="675.70251"
         cx="497.81543"
         r="25"
         style="fill:none;fill-rule:evenodd;stroke:#ffbf00;stroke-width:20" />
      <path
         d="m 597.89619,609.76699 c 18.27314,0 33.08069,14.77587 33.08069,32.99371 v 65.96127 c 0,18.23096 -14.80755,32.98069 -33.08069,32.98069 -18.27315,0 -33.0807,-14.74973 -33.0807,-32.98069 V 642.7607 c 0,-18.21784 14.80755,-32.99371 33.0807,-32.99371 z m -18.90328,65.9744 c 0,10.40453 8.4671,18.83294 18.90328,18.83294 10.43617,0 18.90325,-8.44143 18.90325,-18.83294 0,-10.39152 -8.46708,-18.84607 -18.90325,-18.84607 -10.43618,0 -18.90328,8.44143 -18.90328,18.84607 z"
         gorn="0.4.0.0.0.0.0.0.0.0.0.0.0.0.0.0.0.0.0.0.0.0.3"
         id="path15"
         inkscape:connector-curvature="0"
         style="fill:#ffbf00;fill-rule:nonzero;stroke:none;stroke-width:10.42324924" />
      <circle
         id="connector4pad"
         gorn="0.4.0.0.0.0.0.0.0.0.0.0.0.0.0.0.0.4"
         cy="675.74115"
         cx="597.81549"
         r="25"
         style="fill:none;fill-rule:evenodd;stroke:#ffbf00;stroke-width:20" />
      <path
         id="path37"
         gorn="0.4.0.0.0.0.0.0.0.0.0.0.0.0.0.0.0.0.0.0.0.0.3"
         d="m 698.08068,609.76699 c 18.27314,0 33.08069,14.77587 33.08069,32.99371 v 65.96127 c 0,18.23096 -14.80755,32.98069 -33.08069,32.98069 -18.27315,0 -33.0807,-14.74973 -33.0807,-32.98069 V 642.7607 c 0,-18.21784 14.80755,-32.99371 33.0807,-32.99371 z m -18.90328,65.9744 c 0,10.40453 8.4671,18.83294 18.90328,18.83294 10.43617,0 18.90325,-8.44143 18.90325,-18.83294 0,-10.39152 -8.46708,-18.84607 -18.90325,-18.84607 -10.43618,0 -18.90328,8.44143 -18.90328,18.84607 z"
         inkscape:connector-curvature="0"
         style="fill:#ffbf00;fill-rule:nonzero;stroke:none;stroke-width:10.42324924" />
      <circle
         id="connector5pad"
         gorn="0.4.0.0.0.0.0.0.0.0.0.0.0.0.0.0.0.5"
         cy="675.70251"
         cx="697.81555"
         r="25"
         style="fill:none;fill-rule:evenodd;stroke:#ffbf00;stroke-width:20" />
      <path
         d="m 697.89623,9.7097096 c 18.28629,0 33.09384,14.7627464 33.09384,32.9805964 v 65.961274 c 0,18.21781 -14.80755,32.98056 -33.09384,32.98056 -18.26002,0 -33.0807,-14.76275 -33.0807,-32.98056 V 42.690306 c -10e-6,-18.21785 14.82068,-32.9805964 33.0807,-32.9805964 z M 678.99298,75.670876 c 0,10.40464 8.46708,18.84607 18.89012,18.84607 10.44932,0 18.90326,-8.44143 18.90326,-18.84607 0,-10.40453 -8.46708,-18.84605 -18.90326,-18.84605 -10.42304,0 -18.89012,8.44152 -18.89012,18.84605 z"
         gorn="0.4.0.0.0.0.0.0.0.0.0.0.0.0.0.0.0.0.0.0.0.0.7"
         id="path23"
         inkscape:connector-curvature="0"
         style="fill:#ffbf00;fill-rule:nonzero;stroke:none;stroke-width:10.42324924" />
      <circle
         id="connector6pad"
         gorn="0.4.0.0.0.0.0.0.0.0.0.0.0.0.0.0.0.6"
         cy="77.639442"
         cx="697.81555"
         r="25"
         style="fill:none;fill-rule:evenodd;stroke:#ffbf00;stroke-width:20" />
      <path
         d="m 597.89619,11.678211 c 18.27314,0 33.08069,14.762745 33.08069,32.980595 v 65.961274 c 0,18.21781 -14.80755,32.98056 -33.08069,32.98056 -18.27315,0 -33.0807,-14.76275 -33.0807,-32.98056 V 44.658806 c -10e-6,-18.21785 14.80755,-32.980595 33.0807,-32.980595 z m -18.90328,65.961165 c 0,10.40464 8.4671,18.84607 18.90328,18.84607 10.43617,0 18.90325,-8.44143 18.90325,-18.84607 0,-10.40453 -8.46708,-18.84605 -18.90325,-18.84605 -10.43618,0 -18.90328,8.44152 -18.90328,18.84605 z"
         gorn="0.4.0.0.0.0.0.0.0.0.0.0.0.0.0.0.0.0.0.0.0.0.6"
         id="path21"
         inkscape:connector-curvature="0"
         style="fill:#ffbf00;fill-rule:nonzero;stroke:none;stroke-width:10.42324924" />
      <circle
         id="connector7pad"
         gorn="0.4.0.0.0.0.0.0.0.0.0.0.0.0.0.0.0.7"
         cy="77.639442"
         cx="597.81549"
         r="25"
         style="fill:none;fill-rule:evenodd;stroke:#ffbf00;stroke-width:20" />
      <path
         d="m 497.89616,11.678211 c 18.27315,0 33.0807,14.762745 33.0807,32.980595 v 65.961274 c 0,18.21781 -14.80755,32.98056 -33.0807,32.98056 -18.27316,0 -33.08071,-14.76275 -33.08071,-32.98056 V 44.658806 c 0,-18.21785 14.82069,-32.980595 33.08071,-32.980595 z m -18.90325,65.961165 c 0,10.40464 8.45394,18.84607 18.89013,18.8592 10.43618,0.0104 18.90325,-8.42841 18.91638,-18.83295 0,0 0,-0.0104 0,-0.0312 0,-10.40463 -8.45396,-18.84605 -18.89013,-18.85918 -10.43619,-0.0104 -18.90326,8.4284 -18.91638,18.83293 0,0.0104 0,0.0312 0,0.0312 z"
         gorn="0.4.0.0.0.0.0.0.0.0.0.0.0.0.0.0.0.0.0.0.0.0.5"
         id="path19"
         inkscape:connector-curvature="0"
         style="fill:#ffbf00;fill-rule:nonzero;stroke:none;stroke-width:10.42324924" />
      <circle
         id="connector8pad"
         gorn="0.4.0.0.0.0.0.0.0.0.0.0.0.0.0.0.0.8"
         cy="77.521965"
         cx="497.81543"
         r="25"
         style="fill:none;fill-rule:evenodd;stroke:#ffbf00;stroke-width:20" />
      <path
         d="m 397.89612,11.678211 c 18.27315,0 33.08071,14.762745 33.08071,32.980595 v 65.961274 c 0,18.21781 -14.80756,32.98056 -33.08071,32.98056 -18.27315,0 -33.0807,-14.76275 -33.0807,-32.98056 V 44.658806 c 10e-6,-18.21785 14.80755,-32.980595 33.0807,-32.980595 z m -18.90325,65.961165 c 0,10.40464 8.45395,18.84607 18.89013,18.8592 10.43617,0.0104 18.90327,-8.42841 18.91639,-18.83295 0,0 0,-0.0104 0,-0.0312 0,-10.40463 -8.45397,-18.84605 -18.89014,-18.85918 -10.43618,0 -18.90326,8.4284 -18.91638,18.83293 0,0.0104 0,0.0312 0,0.0312 z"
         gorn="0.4.0.0.0.0.0.0.0.0.0.0.0.0.0.0.0.0.0.0.0.0.8"
         id="path25"
         inkscape:connector-curvature="0"
         style="fill:#ffbf00;fill-rule:nonzero;stroke:none;stroke-width:10.42324924" />
      <circle
         id="connector9pad"
         gorn="0.4.0.0.0.0.0.0.0.0.0.0.0.0.0.0.0.9"
         cy="77.639442"
         cx="397.81543"
         r="25"
         style="fill:none;fill-rule:evenodd;stroke:#ffbf00;stroke-width:20" />
      <path
         d="m 297.89609,11.780246 c 18.27315,0 33.08071,14.76275 33.08071,32.98059 v 65.961284 c 0,18.21781 -14.80756,32.98056 -33.08071,32.98056 -18.27315,0 -33.0807,-14.76275 -33.0807,-32.98056 V 44.760836 c 0,-18.21784 14.80755,-32.98059 33.0807,-32.98059 z m -18.90325,65.96118 c -0.0136,10.40464 8.45395,18.84606 18.89013,18.85919 10.43617,0 18.90325,-8.4284 18.91638,-18.83294 0,0 0,-0.0104 0,-0.0312 0,-10.40465 -8.45396,-18.84607 -18.89013,-18.8592 -10.43618,0 -18.90326,8.4284 -18.91638,18.83295 0,0.0104 0,0.0312 0,0.0312 z"
         gorn="0.4.0.0.0.0.0.0.0.0.0.0.0.0.0.0.0.0.0.0.0.0.9"
         id="path27"
         inkscape:connector-curvature="0"
         style="fill:#ffbf00;fill-rule:nonzero;stroke:none;stroke-width:10.42324924" />
      <circle
         id="connector0pad"
         gorn="0.4.0.0.0.0.0.0.0.0.0.0.0.0.0.0.0.10"
         cy="77.70269"
         cx="297.8154"
         r="25"
         style="fill:none;fill-rule:evenodd;stroke:#ffbf00;stroke-width:20" />
      <path
         id="path43"
         gorn="0.4.0.0.0.0.0.0.0.0.0.0.0.0.0.0.0.0.0.0.0.0.3"
         d="m 298.08069,609.76699 c 18.27314,0 33.08069,14.77587 33.08069,32.99371 v 65.96127 c 0,18.23096 -14.80755,32.98069 -33.08069,32.98069 -18.27315,0 -33.0807,-14.74973 -33.0807,-32.98069 V 642.7607 c 0,-18.21784 14.80755,-32.99371 33.0807,-32.99371 z m -18.90328,65.9744 c 0,10.40453 8.4671,18.83294 18.90328,18.83294 10.43617,0 18.90325,-8.44143 18.90325,-18.83294 0,-10.39152 -8.46708,-18.84607 -18.90325,-18.84607 -10.43618,0 -18.90328,8.44143 -18.90328,18.84607 z"
         inkscape:connector-curvature="0"
         style="fill:#ffbf00;fill-opacity:1;fill-rule:nonzero;stroke:none;stroke-width:10.42324924" />
    </g>
  </g>
</svg>
